<svg width="605" height="224" viewBox="0 0 605 224" fill="none" xmlns="http://www.w3.org/2000/svg">
<path d="M346.372 57.6582H259.585V82.9866H346.372V57.6582Z" fill="#4EB96F"/>
<path d="M326.463 62.5781H279.522V82.987H326.463V62.5781Z" fill="#4EB96F"/>
<path d="M336.601 65.3613H269.328V82.9872H336.601V65.3613Z" fill="#4EB96F"/>
<path d="M355.609 76.495V70.5354H352.483V66.403H357.157V50.267H352.483V43.5765H346.372V40.2031H330.209V43.5765H324.098V50.267H319.424V57.2105H315.876V54.0339H308.977V51.6445H296.981V54.0339H290.082V57.2105H286.534V50.267H281.859V43.5765H275.749V40.2031H259.585V43.5765H253.475V50.267H248.828V66.403H253.475V70.5354H250.377V76.495H245.449V82.9887H250.377H259.67H346.288H355.609H360.508V76.495H355.609Z" fill="#4EB96F"/>
<path d="M280.113 52.9356H277.044V48.5221H273.017V46.3013V45.8516H262.345V46.3013V48.5221H258.318V52.9356H255.22V63.5899H258.318V67.2162H262.345V69.9149H273.017V67.2162H277.044V63.5899H280.113V52.9356Z" fill="#F9FBFB"/>
<path d="M350.596 52.9356H347.499V48.5221H343.472V46.3013V45.8516H332.8V46.3013V48.5221H328.773V52.9356H325.703V63.5899H328.773V67.2162H332.8V69.9149H343.472V67.2162H347.499V63.5899H350.596V52.9356Z" fill="#F9FBFB"/>
<path d="M311.736 54.0605H308.976V56.8155H311.736V54.0605Z" fill="#4EB96F"/>
<path d="M308.976 56.7871H306.217V59.542H308.976V56.7871Z" fill="#4EB96F"/>
<path d="M350.511 78.8555H347.752V81.6104H350.511V78.8555Z" fill="#4EB96F"/>
<path d="M297.009 54.0605H294.249V56.8155H297.009V54.0605Z" fill="#4EB96F"/>
<path d="M299.74 56.7031H296.981V59.458H299.74V56.7031Z" fill="#4EB96F"/>
<path d="M310.356 66.4023H307.597V69.1573H310.356V66.4023Z" fill="#4EB96F"/>
<path d="M330.603 31.3457V34.1006H333.335H336.094V31.3457H333.335H330.603Z" fill="#4EB96F"/>
<path d="M341.613 28.5918H338.854H336.094V31.3467H338.854H341.613H344.373V28.5918H341.613Z" fill="#4EB96F"/>
<path d="M352.624 34.1006V31.3457H349.864H347.104H344.373V34.1006H347.104H349.864H352.595V36.8555H355.355V34.1006H352.624Z" fill="#4EB96F"/>
<path d="M267.329 28.5918H264.569H261.81V31.3467H264.569H267.329H270.088V28.5918H267.329Z" fill="#4EB96F"/>
<path d="M270.089 31.3457V34.1006H272.848H275.58V31.3457H272.848H270.089Z" fill="#4EB96F"/>
<path d="M256.319 31.3457H253.559V34.1006H250.828V36.8555H253.587V34.1006H256.319H259.078H261.81V31.3457H259.078H256.319Z" fill="#4EB96F"/>
<path d="M304.415 70.5332H301.655V73.2881H304.415V70.5332Z" fill="#4EB96F"/>
<path d="M260.965 80.2305H258.206V82.9854H260.965V80.2305Z" fill="#4EB96F"/>
<path d="M274.2 73.2891H261.359V76.044H274.2V73.2891Z" fill="#4EB96F"/>
<path d="M261.359 70.5332H256.234V73.2881H261.359V70.5332Z" fill="#4EB96F"/>
<path d="M278.339 70.5332H274.2V73.2881H278.339V70.5332Z" fill="#4EB96F"/>
<path d="M281.099 67.8047H278.339V70.5596H281.099V67.8047Z" fill="#4EB96F"/>
<path d="M286.365 57.209V59.5422V59.9639V62.2972H283.774V65.0521H281.099V67.807H283.858V65.0521H286.534V62.2972H289.124V59.9639V59.5422V57.209H286.365Z" fill="#4EB96F"/>
<path d="M256.262 67.8047H253.503V70.5596H256.262V67.8047Z" fill="#4EB96F"/>
<path d="M344.598 73.2891H331.757V76.044H344.598V73.2891Z" fill="#4EB96F"/>
<path d="M349.723 70.5332H344.598V73.2881H349.723V70.5332Z" fill="#4EB96F"/>
<path d="M331.758 70.5332H327.618V73.2881H331.758V70.5332Z" fill="#4EB96F"/>
<path d="M327.618 67.8047H324.859V70.5596H327.618V67.8047Z" fill="#4EB96F"/>
<path d="M319.593 57.209V59.5422V59.9639V62.2972H322.183V65.0521H324.858V67.807H322.099V65.0521H319.424V62.2972H316.833V59.9639V59.5422V57.209H319.593Z" fill="#4EB96F"/>
<path d="M352.483 67.8047H349.723V70.5596H352.483V67.8047Z" fill="#4EB96F"/>
<path d="M345.02 78.8555H342.261V81.6104H345.02V78.8555Z" fill="#4EB96F"/>
<path d="M347.752 81.6094H344.992V82.9868H347.752V81.6094Z" fill="#4EB96F"/>
<path d="M264.625 54.875H261.866V57.6299H264.625V54.875Z" fill="#2B5351"/>
<path d="M267.329 52.1504H264.625V54.9053H267.329H267.385H270.088V52.1504H267.385H267.329Z" fill="#2B5351"/>
<path d="M272.848 55.0176H270.089V57.7725H272.848V55.0176Z" fill="#2B5351"/>
<path d="M334.742 54.875H331.983V57.6299H334.742V54.875Z" fill="#2B5351"/>
<path d="M337.446 52.1504H334.743V54.9053H337.446H337.502H340.205V52.1504H337.502H337.446Z" fill="#2B5351"/>
<path d="M342.993 55.0176H340.234V57.7725H342.993V55.0176Z" fill="#2B5351"/>
<path d="M363.127 48.2707V45.4596H360.311V42.6484H318.297V48.2707V45.4596H315.481V48.2707H312.665V51.0819H292.954V48.2707H290.138V45.4596H287.322V42.6484H245.083V45.4596H242.971V48.2707H240.155V56.423V59.2342V60.6398V64.491H242.971V72.5309H245.787V75.342H248.265V78.1532H285.154V75.342H287.97V72.5309H290.786V66.9929H293.602V61.7361H296.417V59.1498H310.497V61.7361H313.313V66.9929H316.129V72.4466H318.945V75.2577H321.761V78.0688H358.593V75.2577H361.071V72.4466H363.887V64.4067H366.703V61.5955V59.0936V56.2825V48.2707H363.127ZM287.66 53.6681V56.4793V66.9929H284.844V69.8041V72.6152H251.053V69.8041H248.237V64.1818H245.421V60.5554V59.0655V56.2544V51.0819H248.237V48.2707H284.844V51.0819H287.66V53.6681ZM360.367 53.6681V56.4793V59.2904V61.8767V64.4629H357.551V69.7197H354.736V72.5309H352.961V74.3019V72.5309H321.057V66.9086H318.241V56.423V51.0819H321.057V48.2707H353.328V46.3873V48.2707H357.692V51.0819H360.508L360.367 53.6681Z" fill="#2B5351"/>
<path d="M171.221 95.4978V93.4457H169.137V91.4217H166.941V93.4457V95.4978H160.859V93.4457V91.4498V89.3976V87.4017V85.1809V83.2131V81.2172H162.942V79.1932H164.998V77.113V74.8359V72.7276H162.942V70.7598H156.663V72.7838H154.579V74.8359V76.8318V78.9121H156.663V80.9923H158.662V83.2694V85.2653V87.3174V89.3133V91.3655V93.2489V95.3292H160.746V97.4094H166.885V99.4053V101.682H169.025V99.6021H171.109V97.5781H173.164V95.4697H171.109L171.221 95.4978ZM156.719 74.7797H158.803V72.7557H160.802V74.7797H162.858V76.7756H160.802V78.8278H158.803V76.7756H156.719V74.7797Z" fill="#4EB96F"/>
<path d="M187.722 72.7557H185.667V70.7598H179.387V72.7838H177.331V74.8078V76.8037V78.884H179.387V80.9642H181.471V83.2412V85.2372V87.2893V89.2852V91.3373H179.387V93.2489H177.331V95.3011V97.297V99.3772H179.387V101.682H185.667V99.6021H187.75V97.5219V95.5259V93.2489H185.667V91.2249H183.611V89.1728V87.1768V85.0966V83.1288V81.1329H185.667V79.1932H187.75V77.113V74.8359V72.7276L187.722 72.7557ZM185.61 97.55H183.527V99.6021H181.527V97.55H179.472V95.5541H181.527V93.53H183.527V95.5541H185.61V97.55ZM185.61 76.8881H183.527V78.9402H181.527V76.8881H179.5V74.7797H181.555V72.7557H183.555V74.7797H185.638L185.61 76.8881Z" fill="#4EB96F"/>
<path d="M442.621 71.6861H440.565V69.6621H434.286V71.6861H432.23V73.7383V75.7342V77.8144H434.286V79.8947H436.37V82.003V83.9989V86.0511V87.0069H424.064V85.9386V84.8142V83.8022V82.003V80.0071H426.007V77.9269H428.091V75.8466V73.8507V71.8829H426.007V69.8589H419.727V71.8829H417.728V73.935V75.931V78.0112H419.784V80.0914H421.867V82.003V83.9989V85.0109V86.0511V87.0631H423.923V89.0871H436.313V90.071H434.229V92.095H432.174V94.372V96.368V98.4482H434.229V100.528H440.509V98.4482H442.593V96.368V94.372V92.4042H440.509V90.4364H438.453V88.3843V86.3884V84.3363V82.003V80.0071H440.509V77.9269H442.593V75.8466V73.8507V71.8829L442.621 71.6861ZM419.924 73.7383H421.98V71.7142H423.979V73.7383H426.007V75.7342H423.923V77.7863H421.924V75.7342H419.868L419.924 73.7383ZM438.481 73.7383H440.509V75.7342H438.425V77.7863H436.426V75.7342H434.455V73.5696H436.51V71.5456H438.51V73.5696L438.481 73.7383ZM436.398 96.4523H434.455V94.5407H436.51V92.5167H438.51V94.5407H440.593V96.5366H438.51V98.5888H436.51V96.5366L436.398 96.4523Z" fill="#4EB96F"/>
<path d="M209.152 180.617H83.1666V182.669H209.152V180.617Z" fill="#4EB96F"/>
<path d="M83.1668 123.188H81.1111V180.619H83.1668V123.188Z" fill="#4EB96F"/>
<path d="M83.2231 55.0176H81.1675V112.843H83.2231V55.0176Z" fill="#4EB96F"/>
<path d="M207.744 52.9648H83.3357V55.017H207.744V52.9648Z" fill="#4EB96F"/>
<path d="M521.58 52.5977H397.51V54.6498H521.58V52.5977Z" fill="#4EB96F"/>
<path d="M523.691 54.6504H521.636V113.403H523.691V54.6504Z" fill="#4EB96F"/>
<path d="M523.691 123.188H521.636V180.76H523.691V123.188Z" fill="#4EB96F"/>
<path d="M521.58 180.789H398.523V182.841H521.58V180.789Z" fill="#4EB96F"/>
<path d="M398.552 50.4908H396.496V48.4668H390.273V50.4908H388.189V52.5711V54.567V56.7034H390.273V58.7275H396.496V56.7034H398.608V54.567V52.5711V50.4908H398.552ZM392.385 56.7034V54.5951H390.329V52.5992H392.385V50.547H394.384V52.5992H396.468V54.5951H394.384V56.7034H392.385Z" fill="#FB6362"/>
<path d="M218.078 51.0814H216.051V48.8887H209.771V51.0814H207.744V57.2659H209.771V59.2899H216.051V57.2659H218.078V51.0814ZM211.996 55.1013H209.94V53.1054H211.996V51.0814H213.995V53.1616H216.079V55.1575H213.995V57.1815H211.996V55.1013Z" fill="#FB6362"/>
<path d="M85.2787 114.894V112.926H79.0837V114.95H76.9999V117.002V118.998V121.05H79.0837V123.074H85.2787V121.219H87.3625V119.11V116.946V114.865H85.2787V114.894ZM81.1393 121.106V119.054H79.0837V116.946H81.1393V114.894H83.1386V116.946H85.2787V118.942H83.1949V120.994L81.1393 121.106Z" fill="#FB6362"/>
<path d="M525.916 114.894V112.926H519.665V114.95H517.581V117.002V118.998V121.05H519.665V123.074H525.916V121.219H528V119.11V116.946V114.865H525.916V114.894ZM521.749 121.106V119.054H519.665V116.946H521.749V114.894H523.72V116.946H525.804V118.942H523.72V120.994L521.749 121.106Z" fill="#FB6362"/>
<path d="M218.078 178.537H216.051V176.457H209.771V178.537H207.744V184.75H209.771V186.774H216.051V184.75H218.078V178.537ZM213.939 180.646H215.994V182.642H213.911V184.666H211.996V182.642H209.912V180.646H211.996V178.594H213.995V180.646H213.939Z" fill="#FB6362"/>
<path d="M398.552 178.622H396.496V176.57H390.273V178.622H388.189V180.646V182.699V184.779H390.273V186.803H396.496V184.779H398.608V182.699V180.646V178.791L398.552 178.622ZM392.385 182.755H390.357V180.759H392.385V178.791H394.384V180.899H396.468V182.895H394.384V184.948H392.385V182.895V182.755Z" fill="#FB6362"/>
<path d="M130.334 103.34H122.055V107.304H117.944V111.408V115.484V119.673V123.721V127.825V131.817V135.78V139.857V143.848H126.223V140.138V136.033V132.014V127.965H134.389V123.889V119.757H126.223V115.737V111.576H134.389V107.5V103.368H130.334V103.34Z" fill="#FB6362"/>
<path d="M392.779 103.34H384.5V107.304H380.417V111.408V115.484V119.673V123.721V127.825V131.817V135.78V139.857V143.848H388.668V140.138V136.033V132.014V127.965H396.862V123.889V119.757H388.668V115.737V111.576H396.862V107.5V103.368H392.779V103.34Z" fill="#FB6362"/>
<path d="M245.055 119.559H240.944V115.736V111.576V107.5V103.367H232.665V107.471V111.491V115.539V119.756V123.776V127.824V131.816V135.892V139.968H236.804V144.213H249.138V140.137V136.005H240.944V131.9V127.88H249.138V123.72V119.559H245.055Z" fill="#FB6362"/>
<path d="M154.86 119.758H146.582V123.834H142.47V127.938V135.978V140.054V144.13H150.749V140.195V136.062V127.994H158.944V123.89V119.758H154.86Z" fill="#FB6362"/>
<path d="M368.168 119.758H359.917V123.834H355.777V127.938V135.978V140.054V144.13H364.028V140.195V136.062V127.994H372.194V123.89V119.758H368.168Z" fill="#FB6362"/>
<path d="M187.61 123.834V119.758H171.137V123.834H166.941V127.938V135.978V140.082H171.165V144.159H187.582V140.195H191.721V136.062V127.994V123.862H187.61V123.834ZM179.5 136.034H175.389V127.994H183.555V132.014V136.062H179.5V136.034Z" fill="#FB6362"/>
<path d="M277.861 123.834V119.758H261.387V123.834H257.22V127.938V135.978V140.082H261.331V144.159H277.776V140.195H281.859V136.062V127.994V123.862H277.861V123.834ZM269.582 136.034H265.499V127.994H273.637V132.014V136.062H269.582V136.034Z" fill="#FB6362"/>
<path d="M220.443 123.834V119.758H203.97V123.834H199.859V127.938V135.978V140.082H203.97V144.159H216.248V148.207V152.283H208.081V148.347H199.859V152.451V156.584H203.97V160.716H220.443V156.584H224.527V152.48V148.375V144.299V140.195V136.062V127.994V123.862H220.443V123.834ZM212.165 136.034H208.138V127.994H216.276V132.014V136.062H212.165V136.034Z" fill="#FB6362"/>
<path d="M487.028 119.755H478.862V115.735V111.575V107.527V103.395H470.611V107.499V111.519V115.735V119.896V123.972V128.048V136.088V140.192H474.723V144.128H487.056V140.192V136.06H478.834V127.992H487.028V123.888V119.755V119.755Z" fill="#FB6362"/>
<path d="M310.553 123.832V119.755H298.36V115.735V111.575V107.527V103.395H290.082V107.499V111.519V115.735V119.896V123.972V128.048V136.088V140.192H294.193V144.128H310.553V140.192H314.665V136.06V127.992V123.86H310.553V123.832ZM302.444 136.032H298.36V127.992H306.498V132.012V136.06H302.444V136.032ZM310.553 140.361V140.192V140.361Z" fill="#FB6362"/>
<path d="M343.5 123.834V119.758H327.027V123.834H322.944V127.938V135.978V140.082H327.055V144.159H347.583V140.195V136.062H331.195V132.127H347.583V127.994V123.862H343.5V123.834ZM339.333 127.91H331.223V123.89H339.361V127.91H339.333Z" fill="#FB6362"/>
<path d="M425.585 123.834V119.758H409.111V123.834H405V127.938V135.978V140.082H409.111V144.159H429.639V140.195V136.062H413.251V132.127H429.639V127.994V123.862H425.585V123.834ZM421.389 127.91H413.251V123.89H421.389V127.91V127.91Z" fill="#FB6362"/>
<path d="M458.362 119.758H441.917V123.834H437.806V127.938V132.043H454.166V135.978H437.721V140.054V144.13H458.278V140.195H462.614V136.062V127.91H446.225V123.89H462.614V119.758H458.362Z" fill="#FB6362"/>
<path d="M252.489 173.901V171.455H240.155V173.985V176.403H250.011V178.792V181.182H240.155V183.599V186.017V188.35V190.711V193.157H242.605V195.575H254.826V193.41V190.993H245.167V188.631V186.298H254.911V183.88V181.435V178.792V176.375V173.957H252.461L252.489 173.901Z" fill="#4EB96F"/>
<path d="M289.462 173.901V171.455H279.578V173.901H277.129V176.318V178.792V181.154V183.571V186.017V188.35V190.711V193.157H279.578V195.575H289.378V193.438H291.8V190.993V188.631V186.298V183.88V181.463V178.82V176.403V173.985H289.378L289.462 173.901ZM286.956 190.936H282.141V188.575V186.242V183.824V181.407V178.792V176.375H286.956V178.792V181.21V183.655V186.017V188.406V190.796V190.936Z" fill="#4EB96F"/>
<path d="M326.52 173.901V171.455H314.242V173.985V176.403H323.986V178.792V181.182H314.242V183.599V186.017V188.35V190.711V193.157H316.692V195.575H328.913V193.41V190.993H319.17V188.631V186.298H328.913V183.88V181.435V178.792V176.375V173.957H326.492L326.52 173.901Z" fill="#4EB96F"/>
<path d="M358.158 170.316H361.022V173.177H358.158V170.316Z" fill="#4EB96F"/>
<path d="M358.158 173.177H361.022V176.036H358.158V173.177Z" fill="#4EB96F"/>
<path d="M358.158 184.618H361.022V187.478H358.158V184.618Z" fill="#4EB96F"/>
<path d="M358.158 178.897H361.022V181.757H358.158V178.897Z" fill="#4EB96F"/>
<path d="M358.158 190.337H361.022V193.198H358.158V190.337Z" fill="#4EB96F"/>
<path d="M358.158 176.038H361.022V178.897H358.158V176.038Z" fill="#4EB96F"/>
<path d="M358.158 187.478H361.022V190.337H358.158V187.478Z" fill="#4EB96F"/>
<path d="M358.158 181.757H361.022V184.618H358.158V181.757Z" fill="#4EB96F"/>
<path d="M358.158 193.198H361.022V196.058H358.158V193.198Z" fill="#4EB96F"/>
<path d="M352.431 193.198H355.295V196.058H352.431V193.198Z" fill="#4EB96F"/>
<path d="M352.431 190.337H355.295V193.198H352.431V190.337Z" fill="#4EB96F"/>
<path d="M363.886 193.198H366.75V196.058H363.886V193.198Z" fill="#4EB96F"/>
<path d="M363.886 190.337H366.75V193.198H363.886V190.337Z" fill="#4EB96F"/>
<path d="M355.294 173.176L358.158 173.177V176.036H355.294V173.176Z" fill="#4EB96F"/>
<path d="M355.294 184.618H358.158V187.478H355.294V184.618Z" fill="#4EB96F"/>
<path d="M355.294 178.897H358.158V181.757H355.294V178.897Z" fill="#4EB96F"/>
<path d="M355.295 190.337H358.158V193.198L355.295 193.198V190.337Z" fill="#4EB96F"/>
<path d="M355.294 176.038H358.158V178.897H355.294V176.038Z" fill="#4EB96F"/>
<path d="M355.294 187.478H358.158V190.337H355.295L355.294 187.478Z" fill="#4EB96F"/>
<path d="M355.294 181.757H358.158V184.618H355.294V181.757Z" fill="#4EB96F"/>
<path d="M355.295 193.198L358.158 193.198V196.058H355.295V193.198Z" fill="#4EB96F"/>
<path d="M349.567 193.198H352.431V196.058H349.567V193.198Z" fill="#4EB96F"/>
<path d="M349.567 190.337H352.431V193.198H349.567V190.337Z" fill="#4EB96F"/>
<path d="M361.022 193.198L363.886 193.198V196.058H361.022V193.198Z" fill="#4EB96F"/>
<path d="M361.022 190.337H363.886V193.198L361.022 193.198V190.337Z" fill="#4EB96F"/>
<rect x="358.158" y="170.314" width="2.8638" height="2.8602" fill="#4EB96F"/>
<rect x="358.158" y="173.174" width="2.8638" height="2.8602" fill="#4EB96F"/>
<rect x="358.158" y="184.615" width="2.8638" height="2.86019" fill="#4EB96F"/>
<rect x="358.158" y="178.895" width="2.8638" height="2.86021" fill="#4EB96F"/>
<rect x="358.158" y="190.336" width="2.8638" height="2.8602" fill="#4EB96F"/>
<rect x="358.158" y="176.037" width="2.8638" height="2.8602" fill="#4EB96F"/>
<rect x="358.158" y="187.477" width="2.8638" height="2.86019" fill="#4EB96F"/>
<rect x="358.158" y="181.754" width="2.8638" height="2.8602" fill="#4EB96F"/>
<rect x="358.158" y="193.197" width="2.8638" height="2.86019" fill="#4EB96F"/>
<rect x="352.431" y="193.197" width="2.8638" height="2.86019" fill="#4EB96F"/>
<rect x="352.431" y="190.336" width="2.8638" height="2.8602" fill="#4EB96F"/>
<rect x="363.886" y="193.197" width="2.86382" height="2.86019" fill="#4EB96F"/>
<rect x="363.886" y="190.336" width="2.86382" height="2.8602" fill="#4EB96F"/>
<rect x="355.294" y="173.174" width="2.8638" height="2.8602" fill="#4EB96F"/>
<rect x="355.294" y="184.615" width="2.8638" height="2.86019" fill="#4EB96F"/>
<rect x="355.294" y="178.895" width="2.8638" height="2.86021" fill="#4EB96F"/>
<rect x="355.294" y="190.336" width="2.8638" height="2.8602" fill="#4EB96F"/>
<rect x="355.294" y="176.037" width="2.8638" height="2.8602" fill="#4EB96F"/>
<rect x="355.294" y="187.477" width="2.8638" height="2.86019" fill="#4EB96F"/>
<rect x="355.294" y="181.754" width="2.8638" height="2.8602" fill="#4EB96F"/>
<rect x="355.294" y="193.197" width="2.8638" height="2.86019" fill="#4EB96F"/>
<rect x="349.567" y="193.197" width="2.8638" height="2.86019" fill="#4EB96F"/>
<rect x="349.567" y="190.336" width="2.8638" height="2.8602" fill="#4EB96F"/>
<rect x="361.022" y="193.197" width="2.86384" height="2.86019" fill="#4EB96F"/>
<rect x="361.022" y="190.336" width="2.86384" height="2.8602" fill="#4EB96F"/>
</svg>
